#!OML:ASF H:\Punching\Project 1\Capture day 1\Session 1\female.ASF
:FULLY-SPECIFIED
:DEGREES
664
root -0.122328 14.6043 1.0282 13.7779 11.7916 -1.14899
lowerback 0.818094 6.21954 2.07326
upperback -6.26576 8.33026 -2.74814
thorax -6.27955 3.96496 -4.49054
lowerneck -9.94555 -4.4563 4.85269
upperneck 37.3698 -10.1578 7.23243
head 14.935 -2.52047 0.671627
rclavicle 4.90998e-014 -5.56597e-015
rhumerus 50.2316 -0.10045 -79.1203
rradius 43.298
rwrist -28.6222
rhand -20.2753 -31.8203
rfingers 7.12502
rthumb 6.07401 -61.7132
lclavicle 4.90998e-014 -5.56597e-015
lhumerus 18.9416 -43.1903 82.6616
lradius 131.309
lwrist 14.1725
lhand -20.1626 11.3192
lfingers 7.12502
lthumb 6.18281 41.209
rfemur 15.5673 -25.2207 10.8723
rtibia 4.6361
rfoot -19.4967 -21.1389
rtoes -4.77525
lfemur -52.9282 -7.83818 -7.35931
ltibia 41.4846
lfoot -3.75103 -2.54195
ltoes -6.84352
665
root -0.127745 14.6067 1.01359 13.6676 11.4417 -1.21349
lowerback 0.935115 6.45378 2.36084
upperback -6.29075 8.6513 -2.9293
thorax -6.27783 4.10471 -4.86155
lowerneck -9.91643 -4.41671 5.12015
upperneck 37.5582 -10.2002 7.30872
head 15.0202 -2.47475 0.657392
rclavicle 6.72389e-014 -5.96354e-015
rhumerus 51.8855 -1.42433 -81.3768
rradius 37.6697
rwrist -23.9432
rhand -19.9986 -31.1526
rfingers 7.12502
rthumb 6.34118 -61.0377
lclavicle 6.72389e-014 -5.96354e-015
lhumerus 18.9873 -43.2457 82.4948
lradius 131.181
lwrist 13.7636
lhand -20.1047 11.4048
lfingers 7.12502
lthumb 6.23878 41.293
rfemur 15.7933 -24.8368 10.7642
rtibia 4.15557
rfoot -19.1834 -21.0397
rtoes -5.48795
lfemur -52.7288 -7.66822 -7.266
ltibia 41.4538
lfoot -3.78443 -2.35262
ltoes -6.91297
666
root -0.132147 14.6103 1.00017 13.5668 10.9725 -1.28742
lowerback 1.04006 6.66492 2.62847
upperback -6.33222 8.93984 -3.13211
thorax -6.28463 4.22841 -5.24277
lowerneck -9.84726 -4.33139 5.48237
upperneck 37.7357 -10.1979 7.39587
head 15.0878 -2.39777 0.639291
rclavicle -5.23922e-014 9.93923e-015
rhumerus 52.9421 -2.76987 -83.817
rradius 33.7433
rwrist -19.362
rhand -19.4458 -30.0986
rfingers 7.12502
rthumb 6.87478 -59.967
lclavicle -5.23922e-014 9.93923e-015
lhumerus 18.9976 -43.3199 82.3864
lradius 131.092
lwrist 13.4251
lhand -20.0728 11.4619
lfingers 7.12502
lthumb 6.26954 41.3491
rfemur 16.0555 -24.3309 10.6226
rtibia 3.52944
rfoot -18.7651 -20.8847
rtoes -6.31407
lfemur -52.5034 -7.46605 -7.14425
ltibia 41.4437
lfoot -3.85338 -2.06805
ltoes -7.01571
667
root -0.135836 14.6149 0.987756 13.4772 10.4035 -1.36674
lowerback 1.12912 6.84547 2.8609
upperback -6.38422 9.18499 -3.35151
thorax -6.29646 4.33167 -5.61965
lowerneck -9.75409 -4.20471 5.93121
upperneck 37.9069 -10.1588 7.49763
head 15.1451 -2.29288 0.618659
rclavicle -1.71974e-013 1.98785e-015
rhumerus 53.3211 -3.80605 -85.8319
rradius 31.7404
rwrist -15.7106
rhand -18.9059 -29.0091
rfingers 7.12502
rthumb 7.39598 -58.8598
lclavicle -1.71974e-013 1.98785e-015
lhumerus 18.9884 -43.4246 82.3236
lradius 131.052
lwrist 13.1843
lhand -20.0784 11.4871
lfingers 7.12502
lthumb 6.26414 41.3745
rfemur 16.3834 -23.7225 10.451
rtibia 2.70236
rfoot -18.2191 -20.7024
rtoes -7.23372
lfemur -52.2584 -7.24458 -6.99619
ltibia 41.4497
lfoot -3.94912 -1.69709
ltoes -7.15152
668
root -0.139177 14.6202 0.976122 13.4006 9.75113 -1.45105
lowerback 1.19548 6.97635 3.02041
upperback -6.429 9.3599 -3.55874
thorax -6.30518 4.40421 -5.93897
lowerneck -9.68278 -4.02814 6.44949
upperneck 38.0807 -10.0679 7.5964
head 15.2064 -2.1566 0.592095
rclavicle 2.13569e-014 -7.55382e-015
rhumerus 53.0003 -4.15581 -86.8432
rradius 31.6495
rwrist -13.7885
rhand -18.5303 -28.2011
rfingers 7.12502
rthumb 7.75849 -58.0388
lclavicle 2.13569e-014 -7.55382e-015
lhumerus 18.9713 -43.5168 82.2986
lradius 131.064
lwrist 13.0409
lhand -20.1151 11.4951
lfingers 7.12502
lthumb 6.22865 41.3835
rfemur 16.8822 -23.0227 10.237
rtibia 1.47942
rfoot -17.4587 -20.5184
rtoes -8.18902
lfemur -52.0015 -7.00998 -6.82237
ltibia 41.47
lfoot -4.06367 -1.251
ltoes -7.31438
669
root -0.142369 14.6257 0.965314 13.3353 9.03056 -1.54502
lowerback 1.22262 7.03954 3.08005
upperback -6.45005 9.43947 -3.7226
thorax -6.29787 4.43646 -6.14912
lowerneck -9.65061 -3.78899 7.01978
upperneck 38.2558 -9.8942 7.66124
head 15.2729 -1.98239 0.553495
rclavicle 1.74657e-013 -1.03368e-014
rhumerus 52.0737 -3.67637 -86.767
rradius 33.2363
rwrist -13.8405
rhand -18.3236 -27.7893
rfingers 7.12502
rthumb 7.95797 -57.6195
lclavicle 1.74657e-013 -1.03368e-014
lhumerus 18.9627 -43.5466 82.296
lradius 131.131
lwrist 12.9976
lhand -20.1885 11.4606
lfingers 7.12502
lthumb 6.15783 41.3511
rfemur 17.4745 -22.2524 10.023
rtibia -5.08889e-014
rfoot -16.5732 -20.3584
rtoes -9.12987
lfemur -51.7381 -6.76599 -6.61963
ltibia 41.5083
lfoot -4.19484 -0.743288
ltoes -7.51247
670
root -0.145546 14.631 0.954993 13.284 8.24412 -1.65549
lowerback 1.20423 7.03131 3.03283
upperback -6.43643 9.41875 -3.82506
thorax -6.26548 4.42723 -6.22524
lowerneck -9.68591 -3.48445 7.60541
upperneck 38.4387 -9.62719 7.68112
head 15.3554 -1.77141 0.505329
rclavicle 8.09799e-014 1.90833e-014
rhumerus 50.74 -2.50438 -85.9741
rradius 36.1957
rwrist -15.5921
rhand -18.2325 -27.7398
rfingers 7.12502
rthumb 8.04592 -57.5666
lclavicle 8.09799e-014 1.90833e-014
lhumerus 18.9818 -43.4781 82.3008
lradius 131.249
lwrist 13.0393
lhand -20.2909 11.3972
lfingers 7.12502
lthumb 6.05895 41.2906
rfemur 17.2033 -21.4832 10.0605
rtibia -2.22639e-014
rfoot -16.4964 -20.2405
rtoes -10.0093
lfemur -51.4784 -6.4984 -6.38653
ltibia 41.5709
lfoot -4.33859 -0.192552
ltoes -7.71602
671
root -0.148587 14.6357 0.945254 13.2492 7.38899 -1.78668
lowerback 1.14223 6.95639 2.88971
upperback -6.39732 9.3052 -3.86379
thorax -6.21696 4.37911 -6.17214
lowerneck -9.75983 -3.11661 8.1951
upperneck 38.6262 -9.25626 7.63765
head 15.4454 -1.52466 0.444013
rclavicle 3.27995e-015 -7.15625e-015
rhumerus 49.1749 -0.88682 -84.9534
rradius 40.2122
rwrist -18.5445
rhand -18.3023 -27.9313
rfingers 7.12502
rthumb 7.97861 -57.7608
lclavicle 3.27995e-015 -7.15625e-015
lhumerus 19.0163 -43.2965 82.3018
lradius 131.416
lwrist 13.1607
lhand -20.4165 11.2915
lfingers 7.12502
lthumb 5.93773 41.1883
rfemur 16.8851 -20.652 10.1397
rtibia 4.13472e-014
rfoot -16.4284 -20.1845
rtoes -10.8079
lfemur -51.2261 -6.20039 -6.121
ltibia 41.6651
lfoot -4.49559 0.395241
ltoes -7.91453
672
root -0.151263 14.6399 0.935855 13.2352 6.45242 -1.94348
lowerback 1.03726 6.82137 2.66406
upperback -6.33684 9.1092 -3.83404
thorax -6.15344 4.29638 -5.9929
lowerneck -9.84688 -2.68397 8.7797
upperneck 38.8058 -8.76041 7.50248
head 15.529 -1.24056 0.362293
rclavicle 2.20651e-014 -3.10104e-014
rhumerus 47.5036 0.961152 -84.0942
rradius 45.0091
rwrist -22.1849
rhand -18.6157 -28.2506
rfingers 7.12502
rthumb 7.67609 -58.0913
lclavicle 2.20651e-014 -3.10104e-014
lhumerus 19.0448 -42.977 82.2989
lradius 131.63
lwrist 13.339
lhand -20.5488 11.1714
lfingers 7.12502
lthumb 5.80994 41.0718
rfemur 16.511 -19.7457 10.2629
rtibia -3.18055e-015
rfoot -16.3613 -20.1909
rtoes -11.5164
lfemur -50.9819 -5.8642 -5.81828
ltibia 41.7945
lfoot -4.6684 1.02513
ltoes -8.09592
673
root -0.153238 14.6435 0.926734 13.2473 5.42544 -2.12539
lowerback 0.902838 6.6494 2.39976
upperback -6.27969 8.864 -3.75928
thorax -6.09307 4.19168 -5.74109
lowerneck -9.8818 -2.20292 9.34362
upperneck 38.96 -8.15007 7.28987
head 15.5856 -0.927041 0.268077
rclavicle 7.07922e-014 -2.54444e-014
rhumerus 45.7392 2.88498 -83.5288
rradius 50.3701
rwrist -26.1848
rhand -19.3003 -28.6573
rfingers 7.12502
rthumb 7.01524 -58.521
lclavicle 7.07922e-014 -2.54444e-014
lhumerus 19.0338 -42.5605 82.3005
lradius 131.878
lwrist 13.5594
lhand -20.6627 11.0181
lfingers 7.12502
lthumb 5.70004 40.9215
rfemur 16.0767 -18.7546 10.4212
rtibia -2.8625e-014
rfoot -16.2742 -20.2504
rtoes -12.1758
lfemur -50.7469 -5.47767 -5.48453
ltibia 41.9607
lfoot -4.85734 1.69065
ltoes -8.24139
674
root -0.15405 14.647 0.918193 13.2777 4.294 -2.33148
lowerback 0.75684 6.46266 2.12456
upperback -6.23445 8.60048 -3.65823
thorax -6.04356 4.07819 -5.45548
lowerneck -9.8451 -1.68675 9.90145
upperneck 39.0821 -7.44066 6.9957
head 15.6088 -0.589641 0.154516
rclavicle -7.38237e-014 -3.33958e-014
rhumerus 43.8856 4.78913 -83.2764
rradius 56.0734
rwrist -30.2651
rhand -20.3639 -29.1066
rfingers 7.12502
rthumb 5.98845 -59.0019
lclavicle -7.38237e-014 -3.33958e-014
lhumerus 18.9814 -42.0766 82.2976
lradius 132.145
lwrist 13.8088
lhand -20.7509 10.8336
lfingers 7.12502
lthumb 5.61483 40.7392
rfemur 15.5888 -17.6618 10.5982
rtibia 5.725e-014
rfoot -16.159 -20.3474
rtoes -12.8011
lfemur -50.5009 -5.03736 -5.12419
ltibia 42.1625
lfoot -5.06658 2.39727
ltoes -8.3108
